HIERARCHY
ROOT Hips
{
	OFFSET 0.000000 97.167313 0.000000
	CHANNELS 6 Xposition Yposition Zposition Xrotation Yrotation Zrotation
	JOINT Spine
	{
		OFFSET 0.000000 13.784798 0.064400
		CHANNELS 3 Xrotation Yrotation Zrotation
		JOINT Spine1
		{
			OFFSET 0.000000 12.037903 0.404700
			CHANNELS 3 Xrotation Yrotation Zrotation
			JOINT Spine2
			{
				OFFSET 0.000000 17.795601 0.420200
				CHANNELS 3 Xrotation Yrotation Zrotation
				JOINT Neck
				{
					OFFSET 0.000000 39.131302 11.954600
					CHANNELS 3 Xrotation Yrotation Zrotation
					JOINT Head
					{
						OFFSET 0.000000 14.456192 15.627699
						CHANNELS 3 Xrotation Yrotation Zrotation
						JOINT HeadTop_End
						{
							OFFSET 0.000000 15.703506 7.603401
							CHANNELS 3 Xrotation Yrotation Zrotation
							End Site
							{
								OFFSET 0.000000 17.447403 0.000000
							}
						}
					}
				}
				JOINT LeftShoulder
				{
					OFFSET 17.399500 24.608795 1.168800
					CHANNELS 3 Xrotation Yrotation Zrotation
					JOINT LeftArm
					{
						OFFSET 18.980635 5.765305 1.818600
						CHANNELS 3 Xrotation Yrotation Zrotation
						JOINT LeftForeArm
						{
							OFFSET 49.290169 0.000000 0.000000
							CHANNELS 3 Xrotation Yrotation Zrotation
							JOINT LeftHand
							{
								OFFSET 31.562012 0.000000 0.000000
								CHANNELS 3 Xrotation Yrotation Zrotation
								JOINT LeftHandThumb1
								{
									OFFSET 6.133995 -4.388519 7.076070
									CHANNELS 3 Xrotation Yrotation Zrotation
									JOINT LeftHandThumb2
									{
										OFFSET 6.037666 -3.485840 3.485847
										CHANNELS 3 Xrotation Yrotation Zrotation
										JOINT LeftHandThumb3
										{
											OFFSET 6.496506 -3.750763 3.750761
											CHANNELS 3 Xrotation Yrotation Zrotation
											JOINT LeftHandThumb4
											{
												OFFSET 5.616882 -3.242905 3.242910
												CHANNELS 3 Xrotation Yrotation Zrotation
												End Site
												{
													OFFSET -1.254608 7.132141 0.375429
												}
											}
										}
									}
								}
								JOINT LeftHandPinky1
								{
									OFFSET 18.920792 -0.453171 -11.426712
									CHANNELS 3 Xrotation Yrotation Zrotation
									JOINT LeftHandPinky2
									{
										OFFSET 4.919586 0.000000 0.000000
										CHANNELS 3 Xrotation Yrotation Zrotation
										JOINT LeftHandPinky3
										{
											OFFSET 5.233047 0.000000 0.000000
											CHANNELS 3 Xrotation Yrotation Zrotation
											JOINT LeftHandPinky4
											{
												OFFSET 5.571716 0.000000 0.000000
												CHANNELS 3 Xrotation Yrotation Zrotation
												End Site
												{
													OFFSET -3.459808 4.342407 -0.466164
												}
											}
										}
									}
								}
								JOINT LeftHandRing1
								{
									OFFSET 22.726120 -0.094986 -6.500475
									CHANNELS 3 Xrotation Yrotation Zrotation
									JOINT LeftHandRing2
									{
										OFFSET 6.408615 0.000000 0.000000
										CHANNELS 3 Xrotation Yrotation Zrotation
										JOINT LeftHandRing3
										{
											OFFSET 6.150223 0.000000 0.000000
											CHANNELS 3 Xrotation Yrotation Zrotation
											JOINT LeftHandRing4
											{
												OFFSET 6.145386 0.000000 0.000000
												CHANNELS 3 Xrotation Yrotation Zrotation
												End Site
												{
													OFFSET -3.671402 4.923981 -0.202372
												}
											}
										}
									}
								}
								JOINT LeftHandMiddle1
								{
									OFFSET 23.373947 0.000000 0.000001
									CHANNELS 3 Xrotation Yrotation Zrotation
									JOINT LeftHandMiddle2
									{
										OFFSET 6.996567 0.000000 0.000000
										CHANNELS 3 Xrotation Yrotation Zrotation
										JOINT LeftHandMiddle3
										{
											OFFSET 7.015945 0.000000 0.000000
											CHANNELS 3 Xrotation Yrotation Zrotation
											JOINT LeftHandMiddle4
											{
												OFFSET 7.721573 0.000000 0.000000
												CHANNELS 3 Xrotation Yrotation Zrotation
												End Site
												{
													OFFSET -4.651108 6.158463 0.251582
												}
											}
										}
									}
								}
								JOINT LeftHandIndex1
								{
									OFFSET 21.310577 -0.490082 6.209344
									CHANNELS 3 Xrotation Yrotation Zrotation
									JOINT LeftHandIndex2
									{
										OFFSET 7.536453 0.000000 0.000000
										CHANNELS 3 Xrotation Yrotation Zrotation
										JOINT LeftHandIndex3
										{
											OFFSET 7.512344 0.000000 0.000000
											CHANNELS 3 Xrotation Yrotation Zrotation
											JOINT LeftHandIndex4
											{
												OFFSET 10.212402 0.000000 0.000001
												CHANNELS 3 Xrotation Yrotation Zrotation
												End Site
												{
													OFFSET -5.180801 8.690506 1.388433
												}
											}
										}
									}
								}
							}
						}
					}
				}
				JOINT RightShoulder
				{
					OFFSET -17.399500 24.608795 1.168800
					CHANNELS 3 Xrotation Yrotation Zrotation
					JOINT RightArm
					{
						OFFSET -18.980635 5.765305 1.818600
						CHANNELS 3 Xrotation Yrotation Zrotation
						JOINT RightForeArm
						{
							OFFSET -49.290169 0.000000 0.000000
							CHANNELS 3 Xrotation Yrotation Zrotation
							JOINT RightHand
							{
								OFFSET -31.562012 0.000000 0.000000
								CHANNELS 3 Xrotation Yrotation Zrotation
								JOINT RightHandThumb1
								{
									OFFSET -6.133995 -4.388519 7.076070
									CHANNELS 3 Xrotation Yrotation Zrotation
									JOINT RightHandThumb2
									{
										OFFSET -6.037666 -3.485840 3.485847
										CHANNELS 3 Xrotation Yrotation Zrotation
										JOINT RightHandThumb3
										{
											OFFSET -6.496506 -3.750763 3.750761
											CHANNELS 3 Xrotation Yrotation Zrotation
											JOINT RightHandThumb4
											{
												OFFSET -5.616882 -3.242905 3.242910
												CHANNELS 3 Xrotation Yrotation Zrotation
												End Site
												{
													OFFSET 1.254608 7.132141 0.375429
												}
											}
										}
									}
								}
								JOINT RightHandIndex1
								{
									OFFSET -21.310577 -0.490082 6.209344
									CHANNELS 3 Xrotation Yrotation Zrotation
									JOINT RightHandIndex2
									{
										OFFSET -7.536453 0.000000 0.000000
										CHANNELS 3 Xrotation Yrotation Zrotation
										JOINT RightHandIndex3
										{
											OFFSET -7.512344 0.000000 0.000000
											CHANNELS 3 Xrotation Yrotation Zrotation
											JOINT RightHandIndex4
											{
												OFFSET -10.212402 0.000000 0.000001
												CHANNELS 3 Xrotation Yrotation Zrotation
												End Site
												{
													OFFSET 5.180801 8.690506 1.388433
												}
											}
										}
									}
								}
								JOINT RightHandMiddle1
								{
									OFFSET -23.373947 0.000000 0.000001
									CHANNELS 3 Xrotation Yrotation Zrotation
									JOINT RightHandMiddle2
									{
										OFFSET -6.996567 0.000000 0.000000
										CHANNELS 3 Xrotation Yrotation Zrotation
										JOINT RightHandMiddle3
										{
											OFFSET -7.015945 0.000000 0.000000
											CHANNELS 3 Xrotation Yrotation Zrotation
											JOINT RightHandMiddle4
											{
												OFFSET -7.721573 0.000000 0.000000
												CHANNELS 3 Xrotation Yrotation Zrotation
												End Site
												{
													OFFSET 4.651108 6.158463 0.251582
												}
											}
										}
									}
								}
								JOINT RightHandRing1
								{
									OFFSET -22.726120 -0.094986 -6.500475
									CHANNELS 3 Xrotation Yrotation Zrotation
									JOINT RightHandRing2
									{
										OFFSET -6.408615 0.000000 0.000000
										CHANNELS 3 Xrotation Yrotation Zrotation
										JOINT RightHandRing3
										{
											OFFSET -6.150223 0.000000 0.000000
											CHANNELS 3 Xrotation Yrotation Zrotation
											JOINT RightHandRing4
											{
												OFFSET -6.145386 0.000000 0.000000
												CHANNELS 3 Xrotation Yrotation Zrotation
												End Site
												{
													OFFSET 3.671402 4.923981 -0.202372
												}
											}
										}
									}
								}
								JOINT RightHandPinky1
								{
									OFFSET -18.920792 -0.453171 -11.426712
									CHANNELS 3 Xrotation Yrotation Zrotation
									JOINT RightHandPinky2
									{
										OFFSET -4.919586 0.000000 0.000000
										CHANNELS 3 Xrotation Yrotation Zrotation
										JOINT RightHandPinky3
										{
											OFFSET -5.233047 0.000000 0.000000
											CHANNELS 3 Xrotation Yrotation Zrotation
											JOINT RightHandPinky4
											{
												OFFSET -5.571716 0.000000 0.000000
												CHANNELS 3 Xrotation Yrotation Zrotation
												End Site
												{
													OFFSET 3.459808 4.342407 -0.466164
												}
											}
										}
									}
								}
							}
						}
					}
				}
			}
		}
	}
	JOINT LeftUpLeg
	{
		OFFSET 19.899099 -7.885101 -3.429500
		CHANNELS 3 Xrotation Yrotation Zrotation
		JOINT LeftLeg
		{
			OFFSET 1.745560 -36.997807 10.304700
			CHANNELS 3 Xrotation Yrotation Zrotation
			JOINT LeftFoot
			{
				OFFSET -1.745558 -29.803308 -13.615400
				CHANNELS 3 Xrotation Yrotation Zrotation
				JOINT LeftToeBase
				{
					OFFSET 1.181900 -18.539904 15.226099
					CHANNELS 3 Xrotation Yrotation Zrotation
					JOINT LeftToe_End
					{
						OFFSET -0.863701 1.402801 16.534700
						CHANNELS 3 Xrotation Yrotation Zrotation
						End Site
						{
							OFFSET 0.000000 16.616566 0.000000
						}
					}
				}
			}
		}
	}
	JOINT RightUpLeg
	{
		OFFSET -19.899099 -7.885101 -3.429500
		CHANNELS 3 Xrotation Yrotation Zrotation
		JOINT RightLeg
		{
			OFFSET -1.745560 -36.997807 10.304700
			CHANNELS 3 Xrotation Yrotation Zrotation
			JOINT RightFoot
			{
				OFFSET 1.745558 -29.803308 -13.615400
				CHANNELS 3 Xrotation Yrotation Zrotation
				JOINT RightToeBase
				{
					OFFSET -1.181900 -18.539904 15.226099
					CHANNELS 3 Xrotation Yrotation Zrotation
					JOINT RightToe_End
					{
						OFFSET 0.863701 1.402801 16.534700
						CHANNELS 3 Xrotation Yrotation Zrotation
						End Site
						{
							OFFSET 0.000000 16.616566 0.000000
						}
					}
				}
			}
		}
	}
}
MOTION
Frames: 4
Frame Time: 0.033333
-1.463469 78.885101 0.375247 9.549069 -61.629173 10.130289 15.063844 -0.307889 -4.269320 5.872398 0.563949 -2.798218 5.868718 0.648177 -2.860158 -3.632890 1.437163 3.747488 -20.005955 54.836765 2.407369 -0.000000 0.000000 -0.000001 1.828095 -3.192677 -12.271576 -39.387413 26.350486 -34.911105 0.429376 -46.808441 0.416195 -10.315070 -0.130715 0.363014 40.109948 -15.297180 -0.360497 5.639847 28.097913 11.338822 1.088523 40.896297 22.734039 0.000001 0.000002 -0.000002 -17.946911 14.754983 -51.485870 8.868443 8.667045 -84.811962 4.540446 8.852547 -59.152969 0.000002 -0.000004 -0.000001 -9.042464 10.045660 -60.766185 8.524093 9.508813 -66.893035 6.576574 9.896760 -70.385106 -0.000000 0.000000 0.000003 -2.345512 4.688849 -62.655224 8.754147 9.897086 -87.051301 1.995388 4.929280 -37.483446 -0.000001 -0.000003 0.000008 6.882253 2.840040 -61.140411 8.247996 7.640065 -89.897864 2.146108 8.173422 -41.827744 0.000002 0.000003 0.000000 0.632601 7.257357 8.700385 7.936008 -9.680161 53.429910 -22.867437 36.194706 17.955466 -27.369934 10.432886 -17.813547 -2.346183 -6.100562 10.731443 2.364068 -23.806298 -8.771066 -5.012431 13.984835 5.861519 0.000000 0.000000 0.000002 -0.054770 0.532079 0.738736 0.019784 -0.087304 5.078504 -0.003977 -2.004382 -2.834024 -0.000000 0.000000 0.000004 0.348250 -5.918521 2.583821 1.432597 -4.204229 24.052093 0.133904 1.746467 -5.753001 0.000000 0.000001 -0.000009 1.205815 -11.756070 4.154778 1.794850 -3.771878 26.865417 1.319779 -3.995370 19.486910 0.000000 0.000002 -0.000001 2.126197 -19.166880 11.319988 3.354777 -2.122233 18.828547 6.367037 -5.015709 28.949156 0.000001 -0.000002 0.000002 -37.387052 9.000151 29.820264 35.081276 -10.561802 -0.715533 -3.624147 0.159645 -20.666141 -1.836413 -0.000609 -0.000029 0.000000 0.000000 0.000000 -26.948733 -18.879543 -40.108968 34.580643 9.750912 -0.978636 -14.069290 -3.890231 27.373696 -0.001691 -0.000438 0.000000 -0.000000 -0.000000 0.000000 
-2.629635 77.993835 -0.504177 26.578474 -59.296656 23.926257 12.553224 -0.274109 -4.365381 0.916199 0.542065 -2.184850 0.922746 0.626618 -2.295334 -10.780127 -4.370236 15.687790 -35.658031 52.589414 3.940493 -0.000000 -0.000001 -0.000001 4.885264 -5.520139 -7.729822 -46.807805 31.935089 -27.025595 -8.633521 -54.595594 -6.597516 -10.165205 0.737018 -2.946524 40.109948 -15.297177 -0.360501 5.639843 28.097909 11.338821 1.088523 40.896301 22.734035 -0.000000 0.000001 -0.000002 -17.946915 14.754984 -51.485874 8.868446 8.667040 -84.811968 4.540451 8.852548 -59.152969 0.000000 0.000001 0.000001 -9.042461 10.045661 -60.766185 8.524097 9.508808 -66.893035 6.576576 9.896757 -70.385099 -0.000002 0.000000 0.000005 -2.345514 4.688854 -62.655224 8.754155 9.897082 -87.051294 1.995391 4.929279 -37.483446 0.000003 -0.000002 0.000008 6.882252 2.840036 -61.140411 8.248005 7.640065 -89.897864 2.146102 8.173423 -41.827734 -0.000003 -0.000000 -0.000001 5.232331 6.325857 5.626178 -1.167905 -26.624149 45.194894 -49.270037 32.269680 33.600153 -18.607308 1.686667 7.147480 0.414918 -10.186248 9.994336 0.325863 -19.099217 -9.574091 0.122464 4.287023 2.551145 0.000000 -0.000002 0.000002 0.148897 -2.525121 3.774706 0.042148 -0.079289 19.890498 -0.025417 -2.005134 12.024034 -0.000001 -0.000001 -0.000001 -7.346533 -9.742797 11.005651 3.922220 -5.382959 37.123598 1.814236 -0.382949 7.141396 0.000002 0.000003 -0.000001 -0.145075 -9.789995 18.450004 1.896423 -3.727338 34.205584 1.426184 -3.965133 26.816419 -0.000002 0.000000 -0.000005 0.525716 -15.763020 21.463282 3.389984 -2.058578 31.716151 6.444891 -4.917639 41.624969 0.000000 -0.000004 -0.000002 -45.613472 6.282274 31.559306 34.392601 -9.690915 -0.704822 -2.657402 0.731163 -22.805230 -1.836413 -0.000609 -0.000029 0.000000 0.000000 -0.000000 -33.659182 -16.682329 -36.398771 36.304552 7.604120 -1.272992 -15.442935 -5.366561 27.038129 -0.001691 -0.000438 0.000000 0.000000 0.000000 0.000000 
-4.065512 75.840546 -0.807161 41.833765 -54.418077 35.399228 9.206082 -0.106864 -4.501752 -3.853405 0.529762 -1.276140 -3.836565 0.622825 -1.443604 -7.516399 -8.792233 21.679990 -44.219126 51.767558 2.831511 -0.000003 0.000001 -0.000000 9.414394 -7.178239 -4.365215 -53.216791 30.928510 -17.074049 -27.896813 -55.496004 -23.796029 -10.659974 4.207854 0.030310 40.109944 -15.297179 -0.360497 5.639846 28.097913 11.338818 1.088522 40.896294 22.734037 0.000001 -0.000002 -0.000001 -17.946911 14.754984 -51.485864 8.868441 8.667047 -84.811962 4.540444 8.852548 -59.152969 0.000001 -0.000003 -0.000003 -9.042462 10.045663 -60.766185 8.524097 9.508813 -66.893035 6.576577 9.896755 -70.385106 0.000003 0.000000 -0.000000 -2.345511 4.688850 -62.655217 8.754152 9.897088 -87.051294 1.995392 4.929276 -37.483446 0.000003 -0.000000 0.000001 6.882250 2.840046 -61.140411 8.247996 7.640069 -89.897864 2.146101 8.173426 -41.827744 -0.000002 -0.000004 -0.000001 11.326817 10.009407 1.443184 -2.492767 -36.930857 37.487572 -68.288703 18.663745 20.368418 -20.678034 11.553332 9.398859 2.168258 -12.810571 9.623859 -0.946558 -16.150739 -9.985787 3.033760 -1.899041 0.932036 0.000002 -0.000004 0.000002 1.292017 -2.224908 9.478006 0.056909 -0.069119 31.756596 0.047268 -2.013935 23.964711 -0.000001 -0.000003 -0.000001 -10.547354 -12.828811 18.764119 5.902386 -5.370249 47.141225 3.389753 -1.209530 17.046738 -0.000000 0.000001 -0.000009 -0.672823 -8.506352 28.165100 1.982172 -3.682575 39.238095 1.515227 -3.933517 31.811039 0.000001 -0.000001 -0.000002 -0.387260 -14.638349 28.258689 3.388315 -2.063180 39.156334 6.428785 -4.941262 48.929163 -0.000002 0.000001 0.000007 -55.222612 1.782355 32.982362 36.544316 -10.094345 -0.805950 -3.388732 3.241358 -24.701596 -1.836414 -0.000614 -0.000029 -0.000000 0.000001 0.000000 -41.052620 -13.959866 -32.922519 39.339496 6.983295 -1.501927 -18.031214 -9.258359 26.765121 -0.001691 -0.000438 0.000000 -0.000000 -0.000000 -0.000000 
-2.417030 71.794800 -1.665798 49.180968 -51.610514 41.726783 11.311199 0.225401 -4.663295 -0.297741 0.976791 -0.741438 -0.285483 1.115335 -0.919028 0.946189 -10.495832 18.804281 -54.416930 49.363816 8.109667 -0.000001 -0.000000 0.000000 10.972273 -7.784688 -1.962004 -62.619980 27.666970 -7.333078 -44.204243 -51.981322 -35.753725 -11.733766 4.369678 6.328320 40.109941 -15.297179 -0.360501 5.639843 28.097906 11.338818 1.088521 40.896294 22.734037 -0.000001 0.000001 -0.000002 -17.946908 14.754979 -51.485870 8.868442 8.667045 -84.811968 4.540447 8.852550 -59.152969 -0.000001 -0.000004 -0.000004 -9.042462 10.045660 -60.766185 8.524096 9.508812 -66.893035 6.576575 9.896758 -70.385106 0.000002 0.000001 0.000005 -2.345510 4.688847 -62.655217 8.754148 9.897081 -87.051301 1.995394 4.929275 -37.483446 0.000004 -0.000002 0.000004 6.882249 2.840038 -61.140404 8.248002 7.640063 -89.897871 2.146108 8.173423 -41.827734 -0.000000 0.000001 0.000001 12.429809 1.030343 2.329367 -0.325844 -26.625527 34.230138 -67.199021 10.742185 3.478185 -27.894071 17.527316 2.333648 2.841517 -13.826716 9.500733 -1.440308 -15.002845 -10.111860 4.103491 -4.284228 0.394878 0.000004 -0.000001 0.000001 1.103416 -4.409184 7.848383 0.059955 -0.067078 33.784291 -0.011344 -2.003010 25.991733 0.000002 -0.000004 -0.000002 -12.481356 -15.198320 17.322465 6.441194 -5.487313 48.487902 4.008343 -1.564782 18.345492 0.000001 -0.000001 -0.000001 -0.641226 -9.672527 28.687532 1.884684 -3.733081 39.138968 1.413807 -3.970610 31.751162 -0.000000 -0.000002 -0.000005 0.282393 -15.189272 31.520452 3.387076 -2.065957 41.967425 6.433604 -4.935628 51.832229 0.000003 -0.000000 0.000006 -64.154867 -2.343075 33.306396 43.006689 -9.812618 -0.572139 -4.244017 4.505807 -26.042888 -1.836413 -0.000609 -0.000029 0.000000 -0.000000 -0.000000 -50.537495 -8.456449 -33.914778 47.689911 6.848871 -1.587630 -20.209927 -10.545702 27.536150 -0.001691 -0.000438 0.000000 0.000000 -0.000000 0.000000 
